<svg width="33" height="32" viewBox="0 0 33 32" fill="none" xmlns="http://www.w3.org/2000/svg">
<g clip-path="url(#clip0_1_3)">
<path d="M16.1 31.1C24.4395 31.1 31.2 24.3395 31.2 16C31.2 7.66049 24.4395 0.899994 16.1 0.899994C7.7605 0.899994 1 7.66049 1 16C1 24.3395 7.7605 31.1 16.1 31.1Z" stroke="white" stroke-width="1.8117"/>
<path d="M8.90001 17.6C9.89412 17.6 10.7 16.7941 10.7 15.8C10.7 14.8059 9.89412 14 8.90001 14C7.90589 14 7.10001 14.8059 7.10001 15.8C7.10001 16.7941 7.90589 17.6 8.90001 17.6Z" fill="white"/>
<path d="M16.1 17.6C17.0941 17.6 17.9 16.7941 17.9 15.8C17.9 14.8059 17.0941 14 16.1 14C15.1059 14 14.3 14.8059 14.3 15.8C14.3 16.7941 15.1059 17.6 16.1 17.6Z" fill="white"/>
<path d="M23.4 17.6C24.3941 17.6 25.2 16.7941 25.2 15.8C25.2 14.8059 24.3941 14 23.4 14C22.4059 14 21.6 14.8059 21.6 15.8C21.6 16.7941 22.4059 17.6 23.4 17.6Z" fill="white"/>
</g>
<defs>
<clipPath id="clip0_1_3">
<rect width="32.2" height="32" fill="white"/>
</clipPath>
</defs>
</svg>
